o Cylinder
v 0.400000 0.000000 2.400000
v 0.282843 -0.282843 -0.000000
v 0.400000 0.000000 -0.000000
v 0.282843 -0.282843 2.400000
v 0.000000 -0.400000 -0.000000
v 0.000000 -0.400000 2.400000
v -0.282843 -0.282843 0.000000
v -0.282843 -0.282843 2.400000
v -0.400000 -0.000000 0.000000
v -0.400000 -0.000000 2.400000
v -0.282843 0.282843 0.000000
v -0.282843 0.282843 2.400000
v -0.000000 0.400000 0.000000
v 0.000000 0.400000 2.400000
v 0.565685 0.565685 2.400000
v 0.282843 0.282843 2.400000
v 0.282843 0.282843 -0.000000
v 0.800000 0.000000 2.400000
v 0.000000 0.000000 3.400000
v 0.000000 0.000000 3.400000
v 0.000000 -0.800000 2.400000
v -0.565685 0.565685 2.400000
v 0.565685 -0.565685 2.400000
v -0.565685 -0.565685 2.400000
v 0.000000 0.800000 2.400000
v -0.800000 -0.000000 2.400000
v 0.000000 0.000000 3.400000
v 0.000000 0.000000 3.400000
v 0.000000 0.000000 3.400000
v 0.000000 0.000000 3.400000
v 0.000000 0.000000 3.400000
v 0.000000 0.000000 3.400000
vn 0.9239 -0.3827 -0.0000
vn 0.3827 -0.9239 -0.0000
vn -0.3827 -0.9239 0.0000
vn -0.9239 -0.3827 0.0000
vn -0.9239 0.3827 0.0000
vn -0.3827 0.9239 0.0000
vn 0.0000 0.0000 -1.0000
vn 0.3827 0.9239 -0.0000
vn 0.9239 0.3827 -0.0000
vn 0.4865 -0.0001 0.8737
vn 0.0000 0.0000 1.0000
vn 0.6547 0.0000 0.7559
vn 0.2014 0.0000 0.9795
vn 0.8932 -0.0003 0.4497
vn -0.5625 -0.0000 -0.8268
vn -0.0407 0.2223 -0.9741
vn -0.1978 0.0000 -0.9802
vn 0.5948 0.5948 -0.5407
vn 0.0000 0.0000 -0.9088
vn 0.2950 0.2950 -0.9088
vn -0.9554 -0.2651 -0.1305
vn 0.1363 0.0378 -0.9899
vn 0.2537 0.0704 -0.9647
vn 0.0000 0.0000 -0.9949
vn 0.7430 0.3077 0.5944
vn -0.3077 0.7430 0.5944
vn -0.7430 -0.3077 0.5944
vn 0.3077 -0.7430 0.5944
vn 0.3077 0.7430 0.5944
vn -0.7430 0.3077 0.5944
vn -0.3077 -0.7430 0.5944
vn 0.7430 -0.3077 0.5944
s 1
f 1//1 2//1 3//1
f 4//2 5//2 2//2
f 6//3 7//3 5//3
f 8//4 9//4 7//4
f 10//5 11//5 9//5
f 12//6 13//6 11//6
f 14//7 15//7 16//7
f 14//8 17//8 13//8
f 16//9 3//9 17//9
f 7//7 11//7 17//7
f 18//10 19//11 20//12
f 4//7 21//7 6//7
f 10//7 22//7 12//7
f 16//7 18//7 1//7
f 1//7 23//7 4//7
f 6//7 24//7 8//7
f 12//7 25//7 14//7
f 8//7 26//7 10//7
f 20//11 27//11 28//11
f 25//11 27//11 29//11
f 26//13 30//11 28//14
f 21//15 31//16 32//17
f 15//11 29//11 19//11
f 22//18 28//19 27//20
f 24//21 32//19 30//22
f 23//23 20//24 31//16
f 1//1 4//1 2//1
f 4//2 6//2 5//2
f 6//3 8//3 7//3
f 8//4 10//4 9//4
f 10//5 12//5 11//5
f 12//6 14//6 13//6
f 14//7 25//7 15//7
f 14//8 16//8 17//8
f 16//9 1//9 3//9
f 17//7 3//7 2//7
f 2//7 5//7 7//7
f 7//7 9//7 11//7
f 11//7 13//7 17//7
f 17//7 2//7 7//7
f 18//25 15//25 19//25
f 4//7 23//7 21//7
f 10//7 26//7 22//7
f 16//7 15//7 18//7
f 1//7 18//7 23//7
f 6//7 21//7 24//7
f 12//7 22//7 25//7
f 8//7 24//7 26//7
f 32//17 31//16 20//24
f 19//11 29//11 27//11
f 30//11 32//11 20//11
f 20//11 19//11 27//11
f 28//11 30//11 20//11
f 25//26 22//26 27//26
f 26//27 24//27 30//27
f 21//28 23//28 31//28
f 15//29 25//29 29//29
f 22//30 26//30 28//30
f 24//31 21//31 32//31
f 23//32 18//32 20//32
